<svg xmlns:xlink="http://www.w3.org/1999/xlink" xmlns="http://www.w3.org/2000/svg" viewBox="0 0 512 512" class="icon icon-ultra-lg" width="512"  height="512" ><path fill="#FF693B" d="M70.1 396.6v3.4c.1 4.4 3.1 8.3 7.5 9.3 32.8 7.8 66.6 11.6 100.3 11.2h1.8L178.6 302c-38.1 41.6-76.3 72.4-108.5 94.6z"></path><path fill="#FFC200" d="M190.1 438.3v3.4c0 3.6 2.5 6.7 6.1 7.5 28.7 6.9 58.2 10.2 87.8 9.9 1.2 0 2.4 0 3.5-.1l-1-105.2c-33.7 37.2-67.7 64.7-96.4 84.5z"></path><path fill="#33ADFF" d="M383.7 398.7c-29.9 33.4-60.3 58-85.8 75.7v3.4c0 2.8 2 5.3 4.8 6 25 6 50.6 8.9 76.4 8.6 25.7-.3 51.4-3.7 76.2-10.2 2.8-.7 4.7-3.2 4.6-6l-1.5-147.3c-.1-14.7.3-29.6 1.5-44.4-15.6 32.5-39.6 73.3-76.2 114.2z"></path><path d="M511.3 258c-.3-25.3-14.8-47.5-37.2-56.5l-39.5-16c-1.8-27-17.9-50.2-42-60l-44-17.8c-1.9-30.6-20.2-57.1-47.6-68.1L227.2 9.7c-2.4-.9-5.1 0-6.3 2.2-.6 1.1-15.3 25.7-44.5 26.5-30.2.8-46.5-25.2-46.7-25.5-1.3-2.1-4-3-6.3-2L46.7 42.7C18.3 54.5-.5 84.2-.1 116.6L1 210.4c0 2.5 1.8 4.8 4.3 5.2C13.8 217 22.4 218 31 218h.7c6.2 0 12.5-.7 18.7-1.5 2.6-.3 4.5-2.7 4.4-5.3v-.6c-.4-2.8-2.9-4.8-5.7-4.5-5.8.7-11.7 1.1-17.5 1.1-6.8 0-13.6-.4-20.4-1.4l-1-89.5c-.3-28.2 16-54.1 40.6-64.3l72.8-30.3c6.2 8.1 23.4 26.7 51.5 26.7h1.6c27.9-.7 44.6-19.6 50.6-27.8L297.2 49c22.2 8.9 37.5 29.7 40.7 54.3l-10.1-4.1c-2.4-1-5.1 0-6.3 2.2-.5.9-13.3 22.2-38.5 22.8-26.1.7-40.2-21.8-40.3-22.1-1.3-2.1-4-3-6.3-2.1l-67.1 27.8c-25.1 10.4-41.9 36.6-41.6 65.3l.8 82.2c0 2.5 1.8 4.4 4.3 4.8 7.5 1.3 15.2 1.8 22.8 1.8h.4c5.5 0 11-.2 16.5-.9 2.8-.3 4.8-2.8 4.4-5.6-.3-2.8-2.9-4.8-5.7-4.4-5 .6-10.2 1-15.2 1-5.7 0-11.5-.4-17.2-1.1L138 193c-.2-24.5 13.9-46.9 35.3-55.7l63.4-26.2c5.8 7.5 21.5 24 46.7 23.3 24.2-.6 39-16.7 44.6-24.2l60.9 24.7c18.9 7.7 32.1 25.3 35.1 46.2l-6.2-2.5c-2.4-1-5.1 0-6.3 2.2-.4.7-9 15-25.8 18.7-.3-.1-.6-.2-.9-.2-1.2-.1-2.4.2-3.4.9-.9.1-1.9.2-2.9.2h-.9c-21.7 0-33.5-18.7-33.7-18.9-1.3-2.1-4-3-6.3-2.1l-58.5 24.2c-22.2 9.2-36.9 32.3-36.7 57.5l.7 71.7c0 2.5 1.8 4.3 4.3 4.7 6.6 1.1 13.3 1.4 20 1.4h.3c4.8 0 9.7-.1 14.5-.7 2.3-.3 4-1.9 4.4-4l.2 19.5 1 105.2c-1.2 0-2.4.1-3.5.1-29.6.3-59.1-3-87.8-9.9-3.5-.8-6-3.9-6.1-7.5v-3.4l-1.6-165.5c-.2-22.3-1.7-44.9-4.5-67-.3-2.8-2.9-4.8-5.7-4.4-2.8.3-4.8 2.9-4.4 5.7 2.7 21.8 4.2 43.9 4.4 65.9l.3 29.1 1.2 118.5h-1.8c-33.7.4-67.5-3.4-100.3-11.2-4.4-1-7.5-4.9-7.5-9.3v-3.4l-2.1-189.3c-.3-25.4-2-51.1-5.2-76.4-.4-2.8-2.9-4.8-5.7-4.4-2.8.4-4.8 2.9-4.4 5.7 3.1 24.9 4.8 50.2 5.1 75.2v3.7l2.1 189c.1 9.1 6.4 17 15.4 19.1 32.1 7.6 65 11.5 98 11.5h6.6l.1 11.1c.1 8.3 5.8 15.5 13.9 17.4 28.3 6.8 57.4 10.2 86.6 10.2h3.7c1.2 0 2.4 0 3.5-.1l.1 8.6c.1 7.5 5.3 14 12.6 15.8 24.8 5.9 50.2 8.9 75.6 8.9h3.2c26.5-.3 53-3.8 78.7-10.5 7.3-1.9 12.4-8.5 12.3-16l-1.4-144.5v-2.8c-.2-19.1.7-38.4 2.7-57.4.3-2.8-1.8-5.3-4.6-5.6-2.8-.3-5.3 1.8-5.6 4.6-.5 4.7-.9 9.5-1.3 14.2-1.1 14.8-1.6 29.6-1.5 44.4l1.5 147.3c0 2.8-1.9 5.3-4.6 6-24.9 6.5-50.5 9.9-76.2 10.2-25.7.2-51.4-2.6-76.4-8.6-2.8-.7-4.8-3.1-4.8-6v-3.4L297 330.6c-.2-19.5-1.5-39.2-3.9-58.5-.3-2.8-2.9-4.8-5.7-4.4-2.8.3-4.8 2.9-4.4 5.7 2.3 19 3.6 38.3 3.8 57.4v1.9c-.5-2.6-3-4.4-5.6-4.1-4.4.5-8.8.8-13.2.8-4.8 0-9.6-.3-14.4-.9l-.7-67.3c-.2-21.1 12-40.4 30.3-48l54.8-22.7c5.3 6.7 18.6 20.2 39.8 20.2h1.2c21-.5 33.9-14.2 39.1-21l52.7 21.3c18.5 7.5 30.6 26 30.8 47.2l.7 68.3c-5.1.8-10.2 1.6-15.3 1.6h-.1c-3.7 0-7.5-.7-11.2-1.1-2.8-.3-5.3 1.5-5.7 4.3v.5c0 2.5 1.9 5 4.5 5.3 4.1.5 8.2 1 12.3 1h.1c7.2 0 14.4-1 21.4-2.4 2.4-.5 4.1-2.8 4.1-5.2l-1.1-72.5z"></path></svg>