<svg xmlns:xlink="http://www.w3.org/1999/xlink" xmlns="http://www.w3.org/2000/svg" viewBox="0 0 512 512" class="icon icon-ultra-lg" width="512"  height="512" ><path fill="#FFC200" d="M64.6 422.7c31.4 7.8 63.8 11.1 96.1 9.9 1.2-28 3.3-56.2 6.3-83.9 1.4-13.2 3-26.5 4.8-39.7-5.8 7.1-11.7 14.2-18.2 21.3-33.2 36.4-67.6 63-94.6 81.9v3.1c0 3.5 2.2 6.6 5.6 7.4zm173.9-217.8c-5.6 11.4-12.1 23.7-19.8 36.8 5.9.4 11.7.8 17.6 1.1.4-12.6 1.1-25.3 2.2-37.9z"></path><path fill="#33ADFF" d="M406.3 458c-1-37-3.4-73.3-7.3-109.2-.5-4.9-1.1-9.9-1.7-14.8l-.3-.3c-8.8-6.7-16.2-14.3-22.1-22.7-20.7 14-44.9 28.4-72.5 41.7-49.1 23.8-94.4 37.4-130.7 45.2-1.4 19.9-2.4 39.1-2.9 60.1h91.4l24-82.4c.6-1.9 2.4-3.6 4.4-3.6h.1c2 0 3.8 1.7 4.4 3.7L315 458h91.3zm-10.6-137.4c-1-7.4-2-14.7-3-22.1-3.3 2.4-6.7 4.8-10.2 7.3 3.7 5.3 8.1 10.2 13.2 14.8z"></path><path d="M392.6 242.7c-.4-2.3-2.2-3.9-4.6-3.7-31.6 3.2-64 4.9-95 5.1v-65c0-27.1-15.7-50.9-39.5-60.8l-61.2-25.4c-2.1-.9-4.6-.1-5.8 1.9-.5.9-12.9 21-36.9 21.4-24.8.3-38-21.2-38.2-21.4-1.2-1.9-3.6-2.7-5.6-1.9l-63.4 25.7C18.6 128.1 3 152.7 3 179.6v77.8c0 2.2 1.2 4.1 3.4 4.5 7.2 1.3 14.4 2 21.7 2 5.2 0 10.3-.2 15.5-.8 2.5-.3 4.3-2.6 4-5.1-.3-2.5-2.6-4.3-5.1-4-4.8.5-9.4.8-14.2.8-5.5 0-11.3-.5-16.3-1.3v-73.9c0-23.3 13.4-44.4 33.8-52.6l60.2-24.3c5.3 7 19.9 22.9 43.8 22.6 23-.3 37.1-15.6 42.3-22.5l58 24c20.3 8.5 33.9 29 33.9 52.4v65c-14-.1-25.5-.4-38-.9.4-16.7 1.3-33.5 3.2-50.1.3-2.5-1.6-4.8-4.1-5.1-2.5-.3-4.8 1.5-5.1 4-.5 4.3-.9 8.6-1.3 12.8-1.1 12.6-1.9 25.2-2.1 37.8-5.9-.3-11.8-.7-17.6-1.1-10.4-.7-20.9-1.6-31.2-2.7-2.4-.2-4.5 1.4-5 3.7-4.1 21.9-7.7 44-10.8 66.3-1.8 13.2-3.4 26.5-4.9 39.7-3 27.7-5.1 55.8-6.3 83.9-32.3 1.2-64.6-2.1-96-9.9-3.5-.9-5.6-3.9-5.6-7.5V255.5c0-21.1-1.4-42.4-3.8-63.4-.3-2.5-2.7-4.3-5.2-4-2.5.3-4.1 2.5-3.8 5.1 2.3 20.6 3.8 41.6 3.8 62.4v159.8c0 7.7 5 14.4 12.5 16.3 27.8 7 56.3 10.5 85 10.5 4.3 0 8.5-.1 12.8-.2-.2 6.6-.5 13.3-.7 19.9 0 1.2.4 2.7 1.3 3.6.9.9 2 1.7 3.2 1.7h99.5c2 0 3.8-1.7 4.4-3.6l20.4-69.9 18.6 69.8c.5 2 2.3 3.6 4.4 3.6H411c1.2 0 2.4-.8 3.3-1.7.9-.9 1.3-2.2 1.3-3.5-.9-38.1-3.4-76.6-7.5-114.4-3.8-35-9-70.3-15.5-104.8zm-105 10.3c32.2 0 64.7-1.5 96.8-4.6.7 3.9 1.4 8.1 2.1 12-32.3 3.5-65.1 5.6-97.5 5.6h-.5c-33.2 0-66.8-2.1-99.8-5.7.7-3.9 1.4-7.9 2.1-11.8 32.1 3.2 64.6 4.5 96.8 4.5zm1.1 119c-2.1 0-3.9 1.7-4.4 3.6l-24 82.4h-91.4c.5-21 1.5-40.2 2.9-60.1 1.1-16 2.5-32.2 4.2-48 .6-5.2 1.2-10.5 1.8-15.6.4-.1.7-.4 1-.6 10.6-8 19.2-17.4 25.6-27.9 6.6-10.7 10.6-21.9 12.1-33.7 24 1.9 48.1 3 72 3h.5c23.4 0 47-1.1 70.4-2.9 1.5 11.8 5.5 23.1 12.1 33.7 1.1 1.8 2.3 3.5 3.5 5.2 5.9 8.4 13.3 15.9 22.1 22.6.1.1.2.1.3.2.6 4.9 1.1 10.1 1.7 15 3.9 36 6.3 72.2 7.3 109.2H315l-21.9-82.3c-.6-2.1-2.3-3.8-4.4-3.8zm103.9-73.5c1.1 7.3 2.1 14.7 3 22.1-5-4.6-9.4-9.5-13.2-14.8-1.1-1.6-2.2-3.2-3.2-4.8-5.8-9.4-9.4-19.4-10.7-29.8 6.5-.6 13-1.2 19.5-1.9 1.7 9.7 3.2 19.4 4.6 29.2zm-205.5-29.4c6.7.7 13.4 1.4 20.2 2-1.3 10.4-4.9 20.4-10.7 29.9-4.5 7.4-10.3 14.2-17.2 20.3 2.2-17.5 4.8-34.9 7.7-52.2z"></path><path fill="#FF693B" d="M442.5 146c1.7-9.4 1.3-17.7.3-24.1l-1.8-2.1-42.2 35 22.3 26.8 10.5-8.7c4.6-6.8 8.9-15.8 10.9-26.9z"></path><path d="M469 143.2c27.4-27 46.9-56.5 36.4-69.1l-16.2-19.5c-.4-.7-.8-1.3-1.3-1.9-12.8-15.5-58.7 8.6-95.4 39-4.4 3.7-8.7 7.4-12.7 11.2-6.2 5.7-12.9 11-20.1 15.3-.8.5-1.6 1-2.5 1.4-8.4 4.8-15.5 7.7-20.1 9.6-6.1 2.5-9.8 4-9.1 8.2.2.9.7 2.3 2.3 3.3 2.1 1.4 6.6 2 12.3 2h2.1c-10.3 15.5-13.3 27.3-8.9 34.4.1.4.3.8.6 1.1l17.9 21.6c2.7 3.3 6.9 4.9 12.6 4.9 6.6 0 15.2-2.3 25.4-6.8 7.3-3.2 15.2-7.5 23.4-12.5l2.5 3.1c.6.7 1.3 1.1 2.2 1.2h.3c.8 0 1.5-.3 2.1-.8l47.2-39.2c1.4-1.2 1.6-3.2.4-4.6l-1.4-1.9zm-56.9-27.9c23.8-19.8 49.1-34.9 66.6-40.2-1.5 3-3.6 6.4-6.2 10.2-6.6 9.6-15.6 20.1-26.3 30.6l-2.3-2.8c-.6-.7-1.3-1.1-2.2-1.2-.9-.1-1.7.2-2.4.7l-47.2 39.2c-.7.6-1.1 1.3-1.2 2.2-.1.9.2 1.7.7 2.4l1.1 1.4c-7.5 4.6-14.7 8.4-21.4 11.4-4.2 1.9-7.9 3.2-11.2 4.2 8.6-16.2 28-38.2 52-58.1zm9.1 66.3l-22.3-26.8 42.2-35 1.8 2.1 20.5 24.7-31.6 26.3-10.6 8.7zm42.8-44.4l-12.7-15.3c11.2-11 20.8-22 27.7-32.2 5.7-8.4 9.4-15.8 10.9-21.9l9.4 11.3c5.2 6.2-6.4 29.7-35.3 58.1zm-66.5-39.5c34.9-29 64.6-42.2 77.8-42.2 2.5 0 4.4.5 5.7 1.4.5.3.8.7 1 .9l.5 1c.6 1.6.7 4-.2 7.3-18.9 3.8-47.6 20.2-75.2 43.1-2 1.6-3.9 3.3-5.8 5h-.1c-.7.6-1.5 1.1-2.2 1.6-9.8 7.2-20.5 12.4-31.7 15.5-8.5 2.3-17 3.2-23.3 3.4 4.5-1.9 10.4-4.6 17-8.4 7.1-4 13.7-8.9 20.1-14.1.6-.5 1.6-1.6 1.6-1.6 4.7-4.3 9.7-8.6 14.8-12.9zM352 145.6l2.7-3.9c4.9-.6 9.9-1.6 14.6-2.8 3.2-.9 6.3-1.9 9.4-3.1-13.5 14.4-23.3 28.3-27.8 39.4-4.4.3-7-.6-8.3-2-2.4-3-1.3-11.9 9.4-27.6zm8.4 49.1l-9.6-11.6c6.4-.3 14.5-2.5 24-6.7 7.3-3.2 15.2-7.4 23.3-12.5l12.7 15.3c-26.7 16.3-46 20.8-50.4 15.5z"></path></svg>