<svg xmlns:xlink="http://www.w3.org/1999/xlink" xmlns="http://www.w3.org/2000/svg" viewBox="0 0 512 512" class="icon icon-ultra-lg" width="512"  height="512" ><path fill="#FF693B" d="M165.8 436.2c59.7 14.9 123 14.9 182.8 0 3.8-.9 6.4-4.3 6.4-8.2V252.1c0-18.5 1-37.2 2.7-55.7-19.1 39-48.8 88.5-94.1 138.1-36.6 40-72.6 69.3-104.6 90.1v3.4c0 3.9 3 7.3 6.8 8.2z"></path><path d="M364.9 177.8c-2.8-.3-5.3 1.7-5.6 4.4-.5 4.7-1.2 9.4-1.6 14.1-1.7 18.5-2.7 37.2-2.7 55.7v176c0 3.9-2.5 7.2-6.3 8.2-59.7 14.9-123.3 14.9-183 0-3.8-1-6.7-4.3-6.7-8.2V252.1c0-23.2-1-46.7-3.6-69.8-.3-2.8-2.6-4.7-5.4-4.4-2.8.3-4.5 2.8-4.1 5.6 2.6 22.7 4.2 45.8 4.2 68.7V428c0 8.5 5.6 15.9 13.9 18 30.6 7.7 62.1 11.5 93.7 11.5s62.4-3.9 93.1-11.6c8.3-2.1 13.3-9.4 13.3-17.9V252.1c0-22.9 2-46 4.6-68.7.2-2.8-1.1-5.3-3.8-5.6z"></path><path d="M373.4 101l-66.9-28c-2.3-1-4.8-.1-6.1 2.1-.6.9-14.1 23.1-40.6 23.5h-.6c-26.9 0-41.2-23.3-41.3-23.5-1.3-2.1-3.9-3-6.2-2.1l-70.6 28.3C115 111.8 97 138.9 97 168.6v85.6c0 2.4 2.1 4.5 4.5 4.9 7.9 1.4 16.2 2.2 24.3 2.2 5.7 0 11.6-.3 17.2-.9 2.8-.3 4.8-2.8 4.5-5.6-.3-2.8-2.8-4.7-5.5-4.4-5.3.6-11 .9-16.3.9-6.1 0-11.6-.5-18.6-1.4v-81.4c0-25.6 15.5-48.9 37.9-57.9l66.7-26.8c5.8 7.7 21.7 24.9 47.6 24.9h.9c25.3-.4 40.9-17.2 46.6-24.8l63.4 26.4c22.4 9.3 36.9 32 36.9 57.7v82c-6 1-12.9 1.4-19.4 1.4-4.5 0-9.1-.3-13.6-.9-2.7-.3-5.3 1.6-5.6 4.4-.3 2.8 1.6 5.3 4.4 5.6 4.8.6 9.8.9 14.7 1h1.2c8.1 0 15.7-.8 23.7-2.2 2.4-.4 3.6-2.5 3.6-4.9V168c-.1-29.8-16.5-56.1-42.7-67z"></path></svg>